<?xml version="1.0" encoding="utf-8"?>
<!-- Generator: Adobe Illustrator 22.0.1, SVG Export Plug-In . SVG Version: 6.00 Build 0)  -->
<svg version="1.1" id="Слой_1" xmlns="http://www.w3.org/2000/svg" xmlns:xlink="http://www.w3.org/1999/xlink" x="0px" y="0px"
	 viewBox="0 0 35.2 23" style="enable-background:new 0 0 35.2 23;" xml:space="preserve">
<style type="text/css">
	.st0{fill:#1D2034;}
	.st1{fill:#171B2F;}
</style>
<title>Group 10</title>
<desc>Created with Sketch.</desc>
<g id="Group-43" transform="translate(153.000000, 2027.000000)">
	<g id="Group-10" transform="translate(0.000000, 200.000000)">
		<g id="Shape_1_">
			<path class="st0" d="M-118.8-2214.5H-152c-0.6,0-1-0.4-1-1c0-0.6,0.4-1,1-1h33.2c0.6,0,1,0.4,1,1
				C-117.8-2214.9-118.3-2214.5-118.8-2214.5z"/>
		</g>
		<g id="Shape">
			<path class="st1" d="M-141-2204c-0.2,0-0.5-0.1-0.7-0.3l-11-10.5c-0.2-0.2-0.3-0.5-0.3-0.7s0.1-0.5,0.3-0.7l11-10.5
				c0.4-0.4,1-0.4,1.4,0c0.4,0.4,0.4,1,0,1.4l-10.2,9.8l10.2,9.8c0.4,0.4,0.4,1,0,1.4C-140.5-2204.1-140.7-2204-141-2204z"/>
		</g>
	</g>
</g>
</svg>
