<?xml version="1.0" encoding="UTF-8"?>
<svg width="91px" height="96px" viewBox="0 0 91 96" version="1.1" xmlns="http://www.w3.org/2000/svg" xmlns:xlink="http://www.w3.org/1999/xlink">
    <!-- Generator: Sketch 49 (51002) - http://www.bohemiancoding.com/sketch -->
    <title>Group 8</title>
    <desc>Created with Sketch.</desc>
    <defs></defs>
    <g id="Page-1" stroke="none" stroke-width="1" fill="none" fill-rule="evenodd">
        <g id="main-hover" transform="translate(-211.000000, -1476.000000)">
            <g id="Group-8" transform="translate(211.000000, 1476.000000)">
                <polygon id="Fill-344" fill="#FFCC01" points="15 63.935 64.037 63.935 64.037 8 15 8"></polygon>
                <path d="M4,11.054 L4,70.34 C5.854,68.836 8.215,67.935 10.782,67.935 L68.5,67.935 L68.5,4 L10.782,4 C7.121,4 4.083,6.979 4.009,10.641 L4,11.054 Z M4.148,81.211 L0,81.211 L0,8.601 L0.231,8.601 C1.252,3.71 5.629,0 10.782,0 L72.5,0 L72.5,71.935 L10.782,71.935 C7.042,71.935 4,74.977 4,78.716 L4.012,78.937 L4.148,81.211 Z" id="Fill-345" fill="#282D33"></path>
                <path d="M70.5,70 L10.782,70 C5.932,70 2,73.931 2,78.781 C2,83.629 5.932,87.561 10.782,87.561 L70.5,87.561 L70.5,70" id="Fill-346" fill="#FFFFFF"></path>
                <path d="M10.782,72 C7.042,72 4,75.042 4,78.781 C4,82.52 7.042,85.561 10.782,85.561 L68.5,85.561 L68.5,72 L10.782,72 Z M72.5,89.561 L10.782,89.561 C4.837,89.561 0,84.725 0,78.781 C0,72.836 4.837,68 10.782,68 L72.5,68 L72.5,89.561 Z" id="Fill-347" fill="#282D33"></path>
                <path d="M88.565,6.194 L88.565,2.763 C88.565,2.339 88.097,2 87.515,2 L80.055,2 C79.471,2 79,2.339 79,2.763 L79,6.194" id="Fill-348" fill="#FFFFFF"></path>
                <path d="M90.565,6.194 L86.565,6.194 L86.565,4 L81,4 L81,6.194 L77,6.194 L77,2.763 C77,1.213 78.342,0 80.055,0 L87.515,0 C89.225,0 90.565,1.213 90.565,2.763 L90.565,6.194" id="Fill-349" fill="#282D33"></path>
                <polyline id="Fill-350" fill="#40B9ED" points="27.738 95.072 21.368 91.032 15 95.072 15 80 27.738 80 27.738 95.072"></polyline>
                <path d="M10,79 L70.374,79" id="Fill-351" fill="#FFFFFF"></path>
                <polygon id="Fill-352" fill="#282D33" points="10 81 70.374 81 70.374 77 10 77"></polygon>
                <path d="M10,69.544 L10,3" id="Fill-353" fill="#FFFFFF"></path>
                <polygon id="Fill-354" fill="#282D33" points="8 69.544 12 69.544 12 3 8 3"></polygon>
                <polygon id="Fill-355" fill="#5EB4E7" points="79 57.558 88.565 57.558 88.565 11 79 11"></polygon>
                <path d="M81,55.558 L86.565,55.558 L86.565,13 L81,13 L81,55.558 Z M77,59.558 L90.565,59.558 L90.565,9 L77,9 L77,59.558 Z" id="Fill-356" fill="#40B9ED"></path>
                <polyline id="Fill-357" fill="#282D33" points="83.775 76.643 77 59.876 77 58 81 58 81 59.098 83.775 65.966 86.55 59.098 86.55 58 90.55 58 90.55 59.876 83.775 76.643"></polyline>
                <polygon id="Fill-358" fill="#282D33" points="27 36 54 36 54 32 27 32"></polygon>
                <polygon id="Fill-359" fill="#282D33" points="30 27 50.666 27 50.666 23 30 23"></polygon>
            </g>
        </g>
    </g>
</svg>