<?xml version="1.0" encoding="UTF-8"?>
<svg width="86px" height="103px" viewBox="0 0 86 103" version="1.1" xmlns="http://www.w3.org/2000/svg" xmlns:xlink="http://www.w3.org/1999/xlink">
    <!-- Generator: Sketch 48.2 (47327) - http://www.bohemiancoding.com/sketch -->
    <title>Group 6</title>
    <desc>Created with Sketch.</desc>
    <defs></defs>
    <g id="main" stroke="none" stroke-width="1" fill="none" fill-rule="evenodd" transform="translate(-1116.000000, -1569.000000)">
        <g id="Group-6" transform="translate(1116.000000, 1569.000000)">
            <polyline id="Fill-646" fill="#BFC6CD" points="74.942 102.839 42.703 47 10.464 102.839 7 100.839 42.703 39 78.406 100.839 74.942 102.839"></polyline>
            <polygon id="Fill-647" fill="#BFC6CD" points="41 101.333 45 101.333 45 0 41 0"></polygon>
            <polygon id="Fill-648" fill="#BFC6CD" points="0 82.09 85.939 82.09 85.939 15 0 15"></polygon>
            <polyline id="Fill-649" fill="#FFFFFF" points="32.439 21 79.939 21 79.939 76.09 6 76.09 6 21 32.439 21"></polyline>
            <path d="M8,74.09 L77.939,74.09 L77.939,23 L8,23 L8,74.09 Z M4,78.09 L81.939,78.09 L81.939,19 L4,19 L4,78.09 Z" id="Fill-650" fill="#BFC6CD"></path>
            <path d="M64.438,38.222 C64.438,41.105 62.102,43.441 59.219,43.441 C56.337,43.441 54,41.105 54,38.222 C54,35.341 56.337,33 59.219,33 C62.102,33 64.438,35.341 64.438,38.222" id="Fill-651" fill="#FFFFFF"></path>
            <polygon id="Fill-652" fill="#FFFFFF" points="31 20 54.333 20 54.333 13 31 13"></polygon>
            <path d="M33,18 L52.333,18 L52.333,15 L33,15 L33,18 Z M29,22 L56.333,22 L56.333,11 L29,11 L29,22 Z" id="Fill-653" fill="#BFC6CD"></path>
            <polygon id="Fill-654" fill="#BFC6CD" points="13 41.005 26.005 41.005 26.005 28 13 28"></polygon>
            <polygon id="Fill-655" fill="#BFC6CD" points="66 34.069 72.069 34.069 72.069 28 66 28"></polygon>
            <polygon id="Fill-656" fill="#BFC6CD" points="26 67.5 52.5 67.5 52.5 41 26 41"></polygon>
            <path d="M25.75,35 C22.579,35 20,37.58 20,40.75 C20,43.92 22.579,46.5 25.75,46.5 C28.92,46.5 31.5,43.92 31.5,40.75 C31.5,37.58 28.92,35 25.75,35 Z M25.75,50.5 C20.374,50.5 16,46.126 16,40.75 C16,35.374 20.374,31 25.75,31 C31.126,31 35.5,35.374 35.5,40.75 C35.5,46.126 31.126,50.5 25.75,50.5 Z" id="Fill-657" fill="#BFC6CD"></path>
            <path d="M52.928,60.102 L65.748,60.102 L59.338,49 L52.928,60.102 Z M72.676,64.102 L46,64.102 L59.338,41 L72.676,64.102 Z" id="Fill-658" fill="#BFC6CD"></path>
        </g>
    </g>
</svg>