<?xml version="1.0" encoding="UTF-8"?>
<svg width="10px" height="22px" viewBox="0 0 10 22" version="1.1" xmlns="http://www.w3.org/2000/svg" xmlns:xlink="http://www.w3.org/1999/xlink">
    <!-- Generator: Sketch 48.2 (47327) - http://www.bohemiancoding.com/sketch -->
    <title>Shape</title>
    <desc>Created with Sketch.</desc>
    <defs></defs>
    <g id="main" stroke="none" stroke-width="1" fill="none" fill-rule="evenodd" transform="translate(-1067.000000, -3158.000000)">
        <path d="M1076.98511,3158 L1073.58884,3158 C1071.57338,3158 1069.33162,3158.87756 1069.33162,3161.90205 C1069.34145,3162.9559 1069.33162,3163.96517 1069.33162,3165.10105 L1067,3165.10105 L1067,3168.94214 L1069.40377,3168.94214 L1069.40377,3180 L1073.82081,3180 L1073.82081,3168.86917 L1076.73622,3168.86917 L1077,3165.09027 L1073.7447,3165.09027 C1073.7447,3165.09027 1073.75199,3163.40926 1073.7447,3162.92108 C1073.7447,3161.72587 1074.94601,3161.79432 1075.01827,3161.79432 C1075.58993,3161.79432 1076.70144,3161.79604 1076.98678,3161.79432 L1076.98678,3158 L1076.98511,3158 L1076.98511,3158 Z" id="Shape" fill="#2E2E2E"></path>
    </g>
</svg>