<?xml version="1.0" encoding="utf-8"?>
<!-- Generator: Adobe Illustrator 22.0.1, SVG Export Plug-In . SVG Version: 6.00 Build 0)  -->
<svg version="1.1" id="Слой_1" xmlns="http://www.w3.org/2000/svg" xmlns:xlink="http://www.w3.org/1999/xlink" x="0px" y="0px"
	 viewBox="0 0 22 17" style="enable-background:new 0 0 22 17;" xml:space="preserve">
<style type="text/css">
	.st0{fill:#2E2E2E;}
</style>
<title>menu</title>
<desc>Created with Sketch.</desc>
<g id="phone" transform="translate(-323.000000, -24.000000)">
	<g id="menu-bar" transform="translate(324.000000, 25.000000)">
		<g id="menu">
			<g id="Shape">
				<path class="st0" d="M20,8H0c-0.6,0-1-0.4-1-1s0.4-1,1-1h20c0.6,0,1,0.4,1,1S20.6,8,20,8z"/>
			</g>
			<g id="Shape_1_">
				<path class="st0" d="M20,1H0c-0.6,0-1-0.4-1-1s0.4-1,1-1h20c0.6,0,1,0.4,1,1S20.6,1,20,1z"/>
			</g>
			<g id="Shape_2_">
				<path class="st0" d="M20,16H0c-0.6,0-1-0.4-1-1s0.4-1,1-1h20c0.6,0,1,0.4,1,1S20.6,16,20,16z"/>
			</g>
		</g>
	</g>
</g>
</svg>
