<svg width="76" height="99" viewBox="0 0 76 99" version="1.1" xmlns="http://www.w3.org/2000/svg" xmlns:xlink="http://www.w3.org/1999/xlink"><title>Group</title><desc>Created with Sketch.</desc><g id="main" stroke="none" stroke-width="1" fill="none" fill-rule="evenodd" transform="translate(-200.000000, -1040.000000)"><g id="Group" transform="translate(200.000000, 1040.000000)"><path d="M72.7933256,68.9475419 L69.8993256,66.1855419 C72.2783256,63.6925419 71.5563256,57.8845419 67.9663256,50.6485419 C63.9693256,42.5905419 56.9743256,33.5795419 48.2693256,25.2745419 C39.5653256,16.9695419 30.2353256,10.4065419 21.9993256,6.79254185 C14.6033256,3.54854185 8.76732563,3.09954185 6.38832563,5.59354185 C3.33232563,8.79554185 5.42632563,17.2385419 11.7233256,27.1035419 L8.35132563,29.2565419 C0.691325627,17.2555419 -1.07867437,7.62354185 3.49432563,2.83154185 C7.19132563,-1.04345815 14.3343256,-0.938458146 23.6063256,3.12954185 C32.2583256,6.92554185 41.9983256,13.7625419 51.0303256,22.3805419 C60.0643256,30.9985419 67.3513256,40.4065419 71.5503256,48.8705419 C76.0493256,57.9415419 76.4913256,65.0715419 72.7933256,68.9475419" id="Fill-1" fill="#282D33"/><path d="M9.662,72.272636 C6.396,72.272636 3.792,71.334636 2,69.456636 L4.895,66.695636 C7.251,69.165636 13.038,68.720636 20.375,65.501636 C28.55,61.915636 37.81,55.400636 46.45,47.157636 C55.09,38.913636 62.033,29.969636 66,21.972636 C69.56,14.795636 70.278,9.035636 67.92,6.565636 C65.062,3.568636 57.461,4.843636 48.082,9.893636 L46.186,6.371636 C57.554,0.249636004 66.53,-0.686363996 70.814,3.804636 C74.49,7.655636 74.053,14.738636 69.583,23.749636 C65.415,32.153636 58.18,41.494636 49.211,50.051636 C40.243,58.608636 30.573,65.396636 21.982,69.164636 C17.262,71.235636 13.096,72.272636 9.662,72.272636" id="Fill-2" fill="#282D33"/><path d="M68.77,7.887 C68.567,7.463 68.308,7.085 68,6.762 L70.894,4 C71.493,4.628 71.992,5.354 72.378,6.159 L68.77,7.887" id="Fill-3" fill="#282D33"/><path d="M73.172,15.451 L69.269,14.576 C69.551,13.321 69.693,12.161 69.693,11.13 L73.693,11 L73.693,11.13 C73.693,12.455 73.518,13.909 73.172,15.451 Z M70.278,23.427 L66.673,21.694 C67.256,20.48 67.764,19.293 68.183,18.166 L71.932,19.559 C71.471,20.802 70.914,22.102 70.278,23.427 Z M66.196,30.645 L62.835,28.477 C63.56,27.352 64.243,26.227 64.865,25.134 L68.343,27.11 C67.684,28.268 66.962,29.457 66.196,30.645 Z M61.427,37.343 L58.27,34.886 C59.091,33.831 59.884,32.768 60.626,31.728 L63.882,34.051 C63.108,35.136 62.281,36.244 61.427,37.343 Z M56.158,43.615 L53.188,40.935 C54.076,39.951 54.95,38.948 55.786,37.955 L58.847,40.529 C57.982,41.558 57.077,42.596 56.158,43.615 Z M50.482,49.5 L47.694,46.632 C48.651,45.702 49.583,44.766 50.488,43.828 L53.367,46.605 C52.432,47.574 51.47,48.54 50.482,49.5 Z M5.993,54.23 L2.304,52.683 C2.818,51.46 3.417,50.186 4.085,48.896 L7.636,50.738 C7.017,51.931 6.465,53.106 5.993,54.23 Z M44.444,55.01 L41.844,51.97 C42.835,51.122 43.824,50.248 44.811,49.348 L47.508,52.303 C46.489,53.233 45.467,54.135 44.444,55.01 Z M38.042,60.112 L35.662,56.897 C36.707,56.123 37.761,55.313 38.795,54.489 L41.289,57.615 C40.218,58.47 39.126,59.31 38.042,60.112 Z M3.979,61.385 L0,60.973 C0.138,59.64 0.431,58.197 0.872,56.683 L4.713,57.801 C4.339,59.085 4.092,60.29 3.979,61.385 Z M31.254,64.731 L29.147,61.33 C30.236,60.656 31.346,59.933 32.447,59.183 L34.699,62.489 C33.551,63.272 32.391,64.026 31.254,64.731 Z M24.01,68.712 L22.292,65.099 C23.422,64.562 24.589,63.961 25.762,63.314 L27.695,66.816 C26.452,67.502 25.213,68.14 24.01,68.712 Z M2.745,70.1 C2.625,69.988 2.508,69.873 2.395,69.755 C1.339,68.648 0.61,67.264 0.226,65.639 L4.119,64.719 C4.341,65.657 4.722,66.4 5.287,66.991 L5.47,67.172 L2.745,70.1 Z M16.153,71.687 L15.12,67.823 C16.263,67.517 17.481,67.117 18.739,66.633 L20.176,70.366 C18.785,70.901 17.432,71.345 16.153,71.687 Z M10.052,72.584 C9.074,72.584 8.146,72.497 7.291,72.326 L8.075,68.404 C9.055,68.6 10.218,68.636 11.494,68.51 L11.883,72.491 C11.256,72.552 10.64,72.583 10.052,72.584 Z" id="Fill-4" fill="#282D33"/><path d="M9.428,47.806 L6,45.745 C6.347,45.167 6.708,44.585 7.082,44 L10.454,46.151 C10.1,46.707 9.757,47.259 9.428,47.806" id="Fill-5" fill="#282D33"/><path d="M68.77,7.887 C68.567,7.463 68.308,7.085 68,6.762 L70.894,4 C71.493,4.628 71.992,5.354 72.378,6.159 L68.77,7.887" id="Fill-6" fill="#282D33"/><path d="M73.172,15.451 L69.269,14.576 C69.551,13.321 69.693,12.161 69.693,11.13 L73.693,11 L73.693,11.13 C73.693,12.455 73.518,13.909 73.172,15.451 Z M70.278,23.427 L66.673,21.694 C67.256,20.48 67.764,19.293 68.183,18.166 L71.932,19.559 C71.471,20.802 70.914,22.102 70.278,23.427 Z M66.196,30.645 L62.835,28.477 C63.56,27.352 64.243,26.227 64.865,25.134 L68.343,27.11 C67.684,28.268 66.962,29.457 66.196,30.645 Z M61.427,37.343 L58.27,34.886 C59.091,33.831 59.884,32.768 60.626,31.728 L63.882,34.051 C63.108,35.136 62.281,36.244 61.427,37.343 Z M56.158,43.615 L53.188,40.935 C54.076,39.951 54.95,38.948 55.786,37.955 L58.847,40.529 C57.982,41.558 57.077,42.596 56.158,43.615 Z M50.482,49.5 L47.694,46.632 C48.651,45.702 49.583,44.766 50.488,43.828 L53.367,46.605 C52.432,47.574 51.47,48.54 50.482,49.5 Z M5.993,54.23 L2.304,52.683 C2.818,51.46 3.417,50.186 4.085,48.896 L7.636,50.738 C7.017,51.931 6.465,53.106 5.993,54.23 Z M44.444,55.01 L41.844,51.97 C42.835,51.122 43.824,50.248 44.811,49.348 L47.508,52.303 C46.489,53.233 45.467,54.135 44.444,55.01 Z M38.042,60.112 L35.662,56.897 C36.707,56.123 37.761,55.313 38.795,54.489 L41.289,57.615 C40.218,58.47 39.126,59.31 38.042,60.112 Z M3.979,61.385 L0,60.973 C0.138,59.64 0.431,58.197 0.872,56.683 L4.713,57.801 C4.339,59.085 4.092,60.29 3.979,61.385 Z M31.254,64.731 L29.147,61.33 C30.236,60.656 31.346,59.933 32.447,59.183 L34.699,62.489 C33.551,63.272 32.391,64.026 31.254,64.731 Z M24.01,68.712 L22.292,65.099 C23.422,64.562 24.589,63.961 25.762,63.314 L27.695,66.816 C26.452,67.502 25.213,68.14 24.01,68.712 Z M2.745,70.1 C2.625,69.988 2.508,69.873 2.395,69.755 C1.339,68.648 0.61,67.264 0.226,65.639 L4.119,64.719 C4.341,65.657 4.722,66.4 5.287,66.991 L5.47,67.172 L2.745,70.1 Z M16.153,71.687 L15.12,67.823 C16.263,67.517 17.481,67.117 18.739,66.633 L20.176,70.366 C18.785,70.901 17.432,71.345 16.153,71.687 Z M10.052,72.584 C9.074,72.584 8.146,72.497 7.291,72.326 L8.075,68.404 C9.055,68.6 10.218,68.636 11.494,68.51 L11.883,72.491 C11.256,72.552 10.64,72.583 10.052,72.584 Z" id="Fill-7" fill="#282D33"/><path d="M9.428,47.806 L6,45.745 C6.347,45.167 6.708,44.585 7.082,44 L10.454,46.151 C10.1,46.707 9.757,47.259 9.428,47.806" id="Fill-8" fill="#282D33"/><path d="M46.783,65.465 C46.193,65.139 45.599,64.801 45,64.449 L47.026,61 C47.595,61.334 48.159,61.656 48.719,61.965 L46.783,65.465" id="Fill-9" fill="#282D33"/><path d="M13.81,4.28732561 C12.49,4.05232561 11.286,3.95832561 10.205,4.01532561 L10,0.0203256112 C11.377,-0.0496743888 12.892,0.0613256112 14.513,0.350325611 L13.81,4.28732561 Z M21.143,6.59832561 C19.882,6.06032561 18.656,5.59832561 17.5,5.22732561 L18.722,1.41932561 C19.996,1.82832561 21.339,2.33232561 22.713,2.91832561 L21.143,6.59832561 Z M28.191,10.1783256 C27.016,9.49432561 25.845,8.85332561 24.71,8.27432561 L26.528,4.71132561 C27.729,5.32432561 28.966,6.00132561 30.204,6.72232561 L28.191,10.1783256 Z M34.891,14.5113256 C33.785,13.7273256 32.673,12.9723256 31.585,12.2683256 L33.759,8.91032561 C34.894,9.64632561 36.053,10.4323256 37.204,11.2473256 L34.891,14.5113256 Z M41.249,19.3843256 C40.208,18.5263256 39.153,17.6873256 38.112,16.8883256 L40.546,13.7143256 C41.624,14.5413256 42.716,15.4103256 43.794,16.2983256 L41.249,19.3843256 Z M47.269,24.6933256 C46.283,23.7653256 45.293,22.8633256 44.301,21.9883256 L46.949,18.9893256 C47.972,19.8923256 48.993,20.8233256 50.01,21.7803256 L47.269,24.6933256 Z M52.936,30.3793256 C52.032,29.4103256 51.094,28.4393256 50.149,27.4903256 L52.982,24.6663256 C53.957,25.6453256 54.926,26.6493256 55.86,27.6483256 L52.936,30.3793256 Z M58.2,36.4243256 C57.37,35.3993256 56.503,34.3673256 55.623,33.3573256 L58.638,30.7283256 C59.55,31.7753256 60.449,32.8443256 61.31,33.9073256 L58.2,36.4243256 Z M62.969,42.8323256 C62.24,41.7573256 61.461,40.6633256 60.654,39.5813256 L63.862,37.1913256 C64.703,38.3203256 65.517,39.4633256 66.279,40.5863256 L62.969,42.8323256 Z M67.064,49.6203256 C66.479,48.5023256 65.824,47.3443256 65.118,46.1773256 L68.54,44.1063256 C69.289,45.3433256 69.985,46.5743256 70.608,47.7653256 L67.064,49.6203256 Z M70.065,56.7763256 C69.725,55.6343256 69.281,54.4173256 68.746,53.1583256 L72.427,51.5933256 C73.021,52.9903256 73.516,54.3503256 73.899,55.6363256 L70.065,56.7763256 Z M74.633,64.6813256 L70.728,63.8153256 C70.856,63.2363256 70.922,62.5883256 70.922,61.8893256 C70.922,61.4243256 70.893,60.9273256 70.836,60.4123256 L74.811,59.9703256 C74.885,60.6313256 74.922,61.2773256 74.922,61.8903256 C74.922,62.8803256 74.824,63.8193256 74.633,64.6813256 Z M54.511,69.5723256 C53.257,69.0883256 51.95,68.5243256 50.627,67.8943256 L52.348,64.2823256 C53.578,64.8693256 54.79,65.3933256 55.95,65.8393256 L54.511,69.5723256 Z M67.574,71.5333256 L66.763,67.6163256 C67.855,67.3893256 68.739,66.9593256 69.39,66.3383256 L72.154,69.2293256 C70.953,70.3773256 69.412,71.1523256 67.574,71.5333256 Z M62.917,71.7193256 C61.572,71.5903256 60.115,71.3183256 58.588,70.9103256 L59.62,67.0463256 C60.935,67.3973256 62.173,67.6293256 63.299,67.7373256 L62.917,71.7193256 Z" id="Fill-10" fill="#282D33"/><path d="M5.895,5.343 L3,2.583 C3.596,1.957 4.297,1.425 5.08,1 L6.986,4.517 C6.57,4.742 6.203,5.02 5.895,5.343" id="Fill-11" fill="#282D33"/><path d="M46.783,65.465 C46.193,65.139 45.599,64.801 45,64.449 L47.026,61 C47.595,61.334 48.159,61.656 48.719,61.965 L46.783,65.465" id="Fill-12" fill="#282D33"/><path d="M13.81,4.28732561 C12.49,4.05232561 11.286,3.95832561 10.205,4.01532561 L10,0.0203256112 C11.377,-0.0496743888 12.892,0.0613256112 14.513,0.350325611 L13.81,4.28732561 Z M21.143,6.59832561 C19.882,6.06032561 18.656,5.59832561 17.5,5.22732561 L18.722,1.41932561 C19.996,1.82832561 21.339,2.33232561 22.713,2.91832561 L21.143,6.59832561 Z M28.191,10.1783256 C27.016,9.49432561 25.845,8.85332561 24.71,8.27432561 L26.528,4.71132561 C27.729,5.32432561 28.966,6.00132561 30.204,6.72232561 L28.191,10.1783256 Z M34.891,14.5113256 C33.785,13.7273256 32.673,12.9723256 31.585,12.2683256 L33.759,8.91032561 C34.894,9.64632561 36.053,10.4323256 37.204,11.2473256 L34.891,14.5113256 Z M41.249,19.3843256 C40.208,18.5263256 39.153,17.6873256 38.112,16.8883256 L40.546,13.7143256 C41.624,14.5413256 42.716,15.4103256 43.794,16.2983256 L41.249,19.3843256 Z M47.269,24.6933256 C46.283,23.7653256 45.293,22.8633256 44.301,21.9883256 L46.949,18.9893256 C47.972,19.8923256 48.993,20.8233256 50.01,21.7803256 L47.269,24.6933256 Z M52.936,30.3793256 C52.032,29.4103256 51.094,28.4393256 50.149,27.4903256 L52.982,24.6663256 C53.957,25.6453256 54.926,26.6493256 55.86,27.6483256 L52.936,30.3793256 Z M58.2,36.4243256 C57.37,35.3993256 56.503,34.3673256 55.623,33.3573256 L58.638,30.7283256 C59.55,31.7753256 60.449,32.8443256 61.31,33.9073256 L58.2,36.4243256 Z M62.969,42.8323256 C62.24,41.7573256 61.461,40.6633256 60.654,39.5813256 L63.862,37.1913256 C64.703,38.3203256 65.517,39.4633256 66.279,40.5863256 L62.969,42.8323256 Z M67.064,49.6203256 C66.479,48.5023256 65.824,47.3443256 65.118,46.1773256 L68.54,44.1063256 C69.289,45.3433256 69.985,46.5743256 70.608,47.7653256 L67.064,49.6203256 Z M70.065,56.7763256 C69.725,55.6343256 69.281,54.4173256 68.746,53.1583256 L72.427,51.5933256 C73.021,52.9903256 73.516,54.3503256 73.899,55.6363256 L70.065,56.7763256 Z M74.633,64.6813256 L70.728,63.8153256 C70.856,63.2363256 70.922,62.5883256 70.922,61.8893256 C70.922,61.4243256 70.893,60.9273256 70.836,60.4123256 L74.811,59.9703256 C74.885,60.6313256 74.922,61.2773256 74.922,61.8903256 C74.922,62.8803256 74.824,63.8193256 74.633,64.6813256 Z M54.511,69.5723256 C53.257,69.0883256 51.95,68.5243256 50.627,67.8943256 L52.348,64.2823256 C53.578,64.8693256 54.79,65.3933256 55.95,65.8393256 L54.511,69.5723256 Z M67.574,71.5333256 L66.763,67.6163256 C67.855,67.3893256 68.739,66.9593256 69.39,66.3383256 L72.154,69.2293256 C70.953,70.3773256 69.412,71.1523256 67.574,71.5333256 Z M62.917,71.7193256 C61.572,71.5903256 60.115,71.3183256 58.588,70.9103256 L59.62,67.0463256 C60.935,67.3973256 62.173,67.6293256 63.299,67.7373256 L62.917,71.7193256 Z" id="Fill-13" fill="#282D33"/><path d="M5.895,5.343 L3,2.583 C3.596,1.957 4.297,1.425 5.08,1 L6.986,4.517 C6.57,4.742 6.203,5.02 5.895,5.343" id="Fill-14" fill="#282D33"/><path d="M19.958,79.547 L53.297,79.547 C53.529,76.395 54.236,72.293 56.223,69.655 C68.524,53.813 69.312,38.723 69.312,37.655 C69.312,19.612 54.696,5 36.655,5 C18.613,5 4,19.612 4,37.655 C4,38.723 4.767,53.803 17.082,69.655 C19.063,72.293 19.746,76.395 19.958,79.547" id="Fill-15" fill="#FFCC01"/><path d="M15,37.871 L11,37.871 C11.001,23.606 22.661,12 36.993,12 L36.993,16 C24.867,16 15.001,25.811 15,37.871" id="Fill-16" fill="#FFF"/><polygon id="Fill-17" fill="#282D33" points="16 82 58.468 82 58.468 78 16 78"/><polygon id="Fill-18" fill="#282D33" points="16 90 58.468 90 58.468 86 16 86"/><polygon id="Fill-19" fill="#282D33" points="25 99 49.986 99 49.986 95 25 95"/><polygon id="Fill-20" fill="#282D33" points="19 89.662 23 89.662 23 81 19 81"/><path d="M9.662,72.469 C6.396,72.469 3.792,71.531 2,69.653 L4.895,66.892 C7.251,69.362 13.038,68.917 20.375,65.698 C28.55,62.112 37.81,55.597 46.45,47.354 C55.09,39.11 62.033,30.166 66,22.169 C69.56,14.992 70.278,9.232 67.92,6.762 L70.814,4 C74.49,7.852 74.053,14.935 69.583,23.946 C65.415,32.35 58.18,41.691 49.211,50.248 C40.243,58.805 30.573,65.593 21.982,69.361 C17.262,71.432 13.096,72.469 9.662,72.469" id="Fill-21" fill="#282D33"/><path d="M72.3,68.9470418 L69.406,66.1850418 C71.785,63.6920418 71.062,57.8840418 67.473,50.6480418 C63.476,42.5900418 56.481,33.5790418 47.776,25.2740418 C39.072,16.9690418 29.742,10.4060418 21.506,6.79204185 C14.11,3.54804185 8.274,3.09904185 5.895,5.59304185 L3,2.83204185 C6.699,-1.04395815 13.842,-0.937958155 23.113,3.12904185 C31.765,6.92504185 41.505,13.7620418 50.537,22.3800418 C59.571,30.9980418 66.858,40.4060418 71.057,48.8700418 C75.556,57.9410418 75.998,65.0710418 72.3,68.9470418" id="Fill-22" fill="#282D33"/></g></g></svg>