<svg width="100" height="105" viewBox="0 0 100 105" version="1.1" xmlns="http://www.w3.org/2000/svg" xmlns:xlink="http://www.w3.org/1999/xlink"><title>Group 3</title><desc>Created with Sketch.</desc><g id="main" stroke="none" stroke-width="1" fill="none" fill-rule="evenodd" transform="translate(-786.000000, -1042.000000)"><g id="Group-3" transform="translate(786.000000, 1042.000000)"><path d="M78.867,100.848 C78.867,101.534 78.312,102.088 77.628,102.088 L3.239,102.088 C2.558,102.088 2,101.534 2,100.848 L2,70.238 C2,69.554 2.558,69 3.239,69 L77.628,69 C78.312,69 78.867,69.554 78.867,70.238 L78.867,100.848" id="Fill-290" fill="#FFF"/><path d="M4,100.088 L76.867,100.088 L76.867,71 L4,71 L4,100.088 Z M77.628,104.088 L3.239,104.088 C1.453,104.088 0,102.634 0,100.848 L0,70.238 C0,68.453 1.453,67 3.239,67 L77.628,67 C79.414,67 80.867,68.453 80.867,70.238 L80.867,100.848 C80.867,102.634 79.414,104.088 77.628,104.088 Z" id="Fill-291" fill="#282D33"/><path d="M8,78 L13.831,78" id="Fill-292" fill="#FFF"/><polygon id="Fill-293" fill="#5EB4E7" points="8 80 13.831 80 13.831 76 8 76"/><path d="M18,78 L23.83,78" id="Fill-294" fill="#FFF"/><polygon id="Fill-295" fill="#5EB4E7" points="18 80 23.83 80 23.83 76 18 76"/><path d="M28,78 L33.828,78" id="Fill-296" fill="#FFF"/><polygon id="Fill-297" fill="#5EB4E7" points="28 80 33.828 80 33.828 76 28 76"/><path d="M38,78 L43.829,78" id="Fill-298" fill="#FFF"/><polygon id="Fill-299" fill="#5EB4E7" points="38 80 43.829 80 43.829 76 38 76"/><path d="M47,78 L52.828,78" id="Fill-300" fill="#FFF"/><polygon id="Fill-301" fill="#5EB4E7" points="47 80 52.828 80 52.828 76 47 76"/><path d="M57,78 L62.827,78" id="Fill-302" fill="#FFF"/><polygon id="Fill-303" fill="#5EB4E7" points="57 80 62.827 80 62.827 76 57 76"/><path d="M67,78 L72.829,78" id="Fill-304" fill="#FFF"/><polygon id="Fill-305" fill="#5EB4E7" points="67 80 72.829 80 72.829 76 67 76"/><path d="M8,86 L13.831,86" id="Fill-306" fill="#FFF"/><polygon id="Fill-307" fill="#5EB4E7" points="8 88 13.831 88 13.831 84 8 84"/><path d="M18,86 L23.83,86" id="Fill-308" fill="#FFF"/><polygon id="Fill-309" fill="#5EB4E7" points="18 88 23.83 88 23.83 84 18 84"/><path d="M28,86 L33.828,86" id="Fill-310" fill="#FFF"/><polygon id="Fill-311" fill="#5EB4E7" points="28 88 33.828 88 33.828 84 28 84"/><path d="M38,86 L43.829,86" id="Fill-312" fill="#FFF"/><polygon id="Fill-313" fill="#5EB4E7" points="38 88 43.829 88 43.829 84 38 84"/><path d="M47,86 L52.828,86" id="Fill-314" fill="#FFF"/><polygon id="Fill-315" fill="#5EB4E7" points="47 88 52.828 88 52.828 84 47 84"/><path d="M57,86 L62.827,86" id="Fill-316" fill="#FFF"/><polygon id="Fill-317" fill="#5EB4E7" points="57 88 62.827 88 62.827 84 57 84"/><path d="M67,86 L72.829,86" id="Fill-318" fill="#FFF"/><polygon id="Fill-319" fill="#5EB4E7" points="67 88 72.829 88 72.829 84 67 84"/><path d="M8,94 L13.831,94" id="Fill-320" fill="#FFF"/><polygon id="Fill-321" fill="#5EB4E7" points="8 96 13.831 96 13.831 92 8 92"/><path d="M18,94 L23.83,94" id="Fill-322" fill="#FFF"/><polygon id="Fill-323" fill="#5EB4E7" points="18 96 23.83 96 23.83 92 18 92"/><path d="M28,94 L63.18,94" id="Fill-324" fill="#FFF"/><polygon id="Fill-325" fill="#5EB4E7" points="28 96 63.18 96 63.18 92 28 92"/><path d="M67,94 L72.829,94" id="Fill-326" fill="#FFF"/><polygon id="Fill-327" fill="#5EB4E7" points="67 96 72.829 96 72.829 92 67 92"/><polygon id="Fill-328" fill="#282D33" points="35 37 37 37 37 33 35 33"/><path d="M19.306,37 L23.205,37 L23.205,33 L19.306,33 L19.306,37 Z M27.105,37 L31.004,37 L31.004,33 L27.105,33 L27.105,37 Z M12.749,38.207 L10.778,34.727 C12.118,33.968 13.565,33.452 15.079,33.193 L15.755,37.135 C14.697,37.316 13.685,37.677 12.749,38.207 Z M8.628,42.971 L4.899,41.526 C5.453,40.096 6.245,38.781 7.251,37.618 L10.276,40.235 C9.571,41.051 9.016,41.971 8.628,42.971 Z M4.664,50.515 C4.223,49.175 4,47.773 4,46.348 L4.005,46.003 L8.004,46.102 L8,46.348 C8,47.348 8.157,48.33 8.464,49.267 L4.664,50.515 Z M10.183,57.613 C8.889,56.787 7.754,55.755 6.811,54.543 L9.968,52.086 C10.629,52.936 11.426,53.661 12.333,54.24 L10.183,57.613 Z M18.716,59.697 L17.349,59.697 C16.353,59.697 15.359,59.587 14.397,59.369 L15.279,55.468 C15.952,55.62 16.649,55.697 17.349,55.697 L18.716,55.697 L18.716,59.697 Z M22.615,59.697 L26.514,59.697 L26.514,55.697 L22.615,55.697 L22.615,59.697 Z M30.413,59.697 L34.312,59.697 L34.312,55.697 L30.413,55.697 L30.413,59.697 Z" id="Fill-329" fill="#282D33"/><polygon id="Fill-330" fill="#282D33" points="38 59 40 59 40 55 38 55"/><polygon id="Fill-331" fill="#282D33" points="40 59 42 59 42 55 40 55"/><path d="M46,59 L49.971,59 L49.971,55 L46,55 L46,59 Z M53.943,59 L57.915,59 L57.915,55 L53.943,55 L53.943,59 Z M61.887,59 L65.858,59 L65.858,55 L61.887,55 L61.887,59 Z M69.831,59 L73.802,59 L73.802,55 L69.831,55 L69.831,59 Z M77.774,59 L81.746,59 L81.746,55 L77.774,55 L77.774,59 Z M89.247,59.184 C88.686,59.062 88.107,59 87.528,59 L85.718,59 L85.718,55 L87.528,55 C88.393,55 89.257,55.093 90.098,55.276 L89.247,59.184 Z M94.306,62.747 C93.736,61.842 93.004,61.071 92.13,60.455 L94.435,57.186 C95.743,58.108 96.839,59.262 97.691,60.617 L94.306,62.747 Z M99.206,69.773 L95.313,68.853 C95.456,68.25 95.528,67.627 95.528,67 C95.528,66.563 95.492,66.123 95.422,65.694 L99.369,65.047 C99.475,65.689 99.528,66.347 99.528,67 C99.528,67.937 99.419,68.87 99.206,69.773 Z M93.735,77.272 L91.664,73.85 C92.577,73.297 93.36,72.579 93.992,71.714 L97.222,74.075 C96.276,75.368 95.103,76.444 93.735,77.272 Z M87.528,79 L85.021,79 L85.021,75 L87.528,75 C87.92,75 88.313,74.972 88.697,74.915 L89.277,78.873 C88.702,78.957 88.113,79 87.528,79 Z" id="Fill-332" fill="#282D33"/><polygon id="Fill-333" fill="#282D33" points="79 79 81 79 81 75 79 75"/><path d="M49.2395565,15 C45.0465565,15.041 40.8545565,15.081 36.6615565,15.122 C31.2725565,15.27 26.9435565,18.373 27.0005565,22.003 C27.0355565,25.721 27.0715565,29.443 27.1075565,33.163 C27.1625565,36.777 28.9705565,39.502 36.5595565,43.005 C41.0835565,45.094 45.4075565,46.638 49.5535565,47.489 L49.2395565,15" id="Fill-334" fill="#FFF"/><path d="M47.2598169,17.02003 L36.6808169,17.12303 C32.1268169,17.24803 28.9658169,19.78003 29.0008169,21.97203 L29.1078169,33.14403 C29.1418169,35.37803 29.8018169,37.68303 37.3978169,41.19003 C41.0618169,42.88203 44.3998169,44.12403 47.5298169,44.95703 L47.2598169,17.02003 Z M49.5538169,49.49003 C49.4198169,49.49003 49.2858169,49.47603 49.1518169,49.44903 C45.0228169,48.60203 40.6298169,47.08803 35.7218169,44.82203 C28.0598169,41.28503 25.1838169,38.13403 25.1078169,33.19403 L25.0008169,22.02303 C24.9258169,17.21903 30.0238169,13.30503 36.6068169,13.12403 L49.2208169,13.00103 C49.7978169,12.98303 50.2618169,13.20203 50.6408169,13.57403 C51.0198169,13.94503 51.2348169,14.45103 51.2398169,14.98203 L51.5538169,47.47103 C51.5598169,48.07503 51.2918169,48.65003 50.8258169,49.03403 C50.4638169,49.33103 50.0138169,49.49003 49.5538169,49.49003 Z" id="Fill-335" fill="#282D33"/><path d="M49,15.12 C53.192,15.079 57.387,15.04 61.58,15 C66.969,15.044 71.357,18.062 71.37,21.693 C71.406,25.413 71.441,29.134 71.477,32.853 C71.494,36.467 69.737,39.227 62.218,42.874 C57.736,45.051 53.44,46.677 49.313,47.609 L49,15.12" id="Fill-336" fill="#FFF"/><path d="M51.0190838,17.101 L51.2880838,45.037 C54.4080838,44.142 57.7210838,42.835 61.3440838,41.075 C68.8730838,37.423 69.4880838,35.106 69.4770838,32.862 L69.3710838,21.798 C69.3620838,19.507 66.1540838,17.037 61.5640838,17 L51.0190838,17.101 Z M49.3130838,49.609 C48.8670838,49.609 48.4280838,49.46 48.0720838,49.177 C47.5980838,48.802 47.3190838,48.233 47.3130838,47.628 L47.0000838,15.139 C46.9900838,14.034 47.8760838,13.131 48.9810838,13.12 L61.5600838,13 C68.1810838,13.053 73.3520838,16.869 73.3700838,21.685 L73.4770838,32.833 C73.4990838,37.784 70.6840838,40.99 63.0910838,44.673 C58.2390838,47.03 53.8750838,48.629 49.7530838,49.56 C49.6070838,49.593 49.4600838,49.609 49.3130838,49.609 Z" id="Fill-337" fill="#282D33"/><polyline id="Fill-338" fill="#FFF" points="49.035 34.326 7 18.569 48.724 2 90.76 17.761 49.035 34.326"/><path d="M13.109,18.659 L49.568,32.326 L85.759,17.959 L49.298,4.287 L13.109,18.659 Z M49.609,36.613 L2,18.766 L49.257,0 L96.869,17.852 L49.609,36.613 Z" id="Fill-339" fill="#282D33"/><polyline id="Fill-340" fill="#FFCC01" points="72.582 41.618 72.49 26.302 47 16.745 48.404 13 76.474 23.524 76.582 41.595 72.582 41.618"/><path d="M53.1740526,14.2754503 C53.1860526,15.5614503 51.1410526,16.6194503 48.6090526,16.6444503 C46.0750526,16.6674503 44.0140526,15.6474503 44.0000526,14.3634503 C43.9880526,13.0814503 46.0300526,12.0254503 48.5640526,12.0004503 C51.0970526,11.9754503 53.1620526,12.9944503 53.1740526,14.2754503" id="Fill-341" fill="#FFF"/><path d="M46.5801557,14.341 C47.0271557,14.502 47.6791557,14.644 48.5241557,14.644 L48.5241557,16.644 L48.5901557,14.644 C49.4691557,14.635 50.1431557,14.476 50.5971557,14.302 C50.1521557,14.142 49.4991557,14 48.6551557,14 C47.7361557,14.008 47.0441557,14.168 46.5801557,14.341 Z M48.5241557,18.644 C44.7701557,18.644 42.0271557,16.853 42.0001557,14.385 C41.9761557,11.88 44.7291557,10.038 48.5451557,10 L48.6551557,10 C52.4101557,10 55.1521557,11.79 55.1741557,14.256 C55.1971557,16.761 52.4441557,18.606 48.6291557,18.644 L48.5241557,18.644 Z" id="Fill-342" fill="#282D33"/><path d="M80.311,49.796 L80.311,42.289 C80.311,39.921 78.002,38 75.155,38 C72.31,38 70,39.921 70,42.289 L70,49.796 L80.311,49.796" id="Fill-343" fill="#FFCC01"/></g></g></svg>