<svg width="103" height="97" viewBox="0 0 103 97" version="1.1" xmlns="http://www.w3.org/2000/svg" xmlns:xlink="http://www.w3.org/1999/xlink"><title>Group 11</title><desc>Created with Sketch.</desc><g id="Page-1" stroke="none" stroke-width="1" fill="none" fill-rule="evenodd"><g id="main-hover" transform="translate(-816.000000, -1572.000000)"><g id="Group-11" transform="translate(816.000000, 1572.000000)"><polygon id="Fill-461" fill="#BFC6CD" points="0 96.187 41.59 96.187 41.59 40 0 40"/><polygon id="Fill-462" fill="#FFF" points="5 90.936 41.597 90.936 41.597 39 5 39"/><path d="M26.553,37 L19,37" id="Fill-463" fill="#FFF"/><polygon id="Fill-464" fill="#BFC6CD" points="19 39 26.553 39 26.553 35 19 35"/><path d="M42.679,96.58 L38.679,96.58 C38.679,94.554 37.03,92.906 35.004,92.906 L4,92.906 L4,35 L11.717,35 L11.717,39 L8,39 L8,88.906 L35.004,88.906 C36.334,88.906 37.587,89.247 38.679,89.845 L38.679,60.314 L42.679,60.314 L42.679,96.58" id="Fill-465" fill="#BFC6CD"/><path d="M11,45 L26.501,45" id="Fill-466" fill="#FFF"/><polygon id="Fill-467" fill="#BFC6CD" points="11 47 26.501 47 26.501 43 11 43"/><path d="M11,53 L26.501,53" id="Fill-468" fill="#FFF"/><polygon id="Fill-469" fill="#BFC6CD" points="11 55 26.501 55 26.501 51 11 51"/><path d="M11,60 L33.739,60" id="Fill-470" fill="#FFF"/><polygon id="Fill-471" fill="#BFC6CD" points="11 62 33.739 62 33.739 58 11 58"/><path d="M11,67 L33.739,67" id="Fill-472" fill="#FFF"/><polygon id="Fill-473" fill="#BFC6CD" points="11 69 33.739 69 33.739 65 11 65"/><path d="M11,75 L33.739,75" id="Fill-474" fill="#FFF"/><polygon id="Fill-475" fill="#BFC6CD" points="11 77 33.739 77 33.739 73 11 73"/><path d="M11,82 L33.739,82" id="Fill-476" fill="#BFC6CD"/><polygon id="Fill-477" fill="#BFC6CD" points="11 84 33.739 84 33.739 80 11 80"/><path d="M73.061,96.324 L69.061,96.324 L69.061,84.943 C69.061,83.838 69.956,82.943 71.061,82.943 L84.597,82.943 C88.206,82.943 91.142,80.005 91.142,76.394 L91.142,63.88 C91.142,62.776 92.037,61.88 93.142,61.88 L97.042,61.88 L88.527,47.13 C88.337,46.801 88.244,46.424 88.261,46.045 C88.28,45.596 88.296,45.149 88.296,44.697 C88.296,28.322 74.973,15 58.598,15 C52.357,15 46.385,16.914 41.329,20.536 L39,17.284 C44.739,13.172 51.516,11 58.598,11 C77.179,11 92.296,26.116 92.296,44.697 C92.296,45.009 92.29,45.32 92.279,45.63 L102.238,62.88 C102.595,63.499 102.595,64.261 102.238,64.88 C101.881,65.499 101.22,65.88 100.506,65.88 L95.142,65.88 L95.142,76.394 C95.142,82.211 90.411,86.943 84.597,86.943 L73.061,86.943 L73.061,96.324" id="Fill-479" fill="#BFC6CD"/><path d="M44,42.666 C44,52.424 51.91,60.333 61.667,60.333 C71.424,60.333 79.333,52.424 79.333,42.666 C79.333,32.91 71.424,25 61.667,25 C51.91,25 44,32.91 44,42.666" id="Fill-480" fill="#BFC6CD"/><path d="M52,42.667 C52,48.005 56.328,52.333 61.666,52.333 C67.005,52.333 71.332,48.005 71.332,42.667 C71.332,37.329 67.005,33 61.666,33 C56.328,33 52,37.329 52,42.667" id="Fill-481" fill="#FFF"/><path d="M61.666,35 C57.439,35 54,38.439 54,42.667 C54,46.894 57.439,50.333 61.666,50.333 C65.893,50.333 69.332,46.894 69.332,42.667 C69.332,38.439 65.893,35 61.666,35 Z M61.666,54.333 C55.234,54.333 50,49.1 50,42.667 C50,36.234 55.234,31 61.666,31 C68.099,31 73.332,36.234 73.332,42.667 C73.332,49.1 68.099,54.333 61.666,54.333 Z" id="Fill-482" fill="#BFC6CD"/><path d="M34.496,34.085 L30.496,34.085 L30.496,31.498 C30.496,27.915 27.582,25 24,25 L24,21 C29.788,21 34.496,25.709 34.496,31.498 L34.496,34.085" id="Fill-483" fill="#BFC6CD"/><path d="M42,48.805 L38,48.805 L38,12.921 C38,5.797 43.796,0 50.919,0 L50.919,4 C46.001,4 42,8.002 42,12.921 L42,48.805" id="Fill-484" fill="#BFC6CD"/><path d="M35.817,57.591 C32.61,57.591 30,54.98 30,51.771 L30,34 L34,34 L34,51.771 C34,52.775 34.815,53.591 35.817,53.591 C36.82,53.591 37.636,52.775 37.636,51.771 L37.636,41.663 L41.636,41.663 L41.636,51.771 C41.636,54.98 39.026,57.591 35.817,57.591" id="Fill-485" fill="#BFC6CD"/><path d="M63.928,31.575 L59.928,31.575 L59.928,12.921 C59.928,8.002 55.923,4 51,4 L51,0 C58.128,0 63.928,5.797 63.928,12.921 L63.928,31.575" id="Fill-486" fill="#BFC6CD"/><path d="M18,38.603 L14,38.603 L14,31.498 C14,25.709 18.708,21 24.496,21 L24.496,25 C20.914,25 18,27.915 18,31.498 L18,38.603" id="Fill-487" fill="#BFC6CD"/></g></g></g></svg>