<?xml version="1.0" encoding="utf-8"?>
<!-- Generator: Adobe Illustrator 22.0.1, SVG Export Plug-In . SVG Version: 6.00 Build 0)  -->
<svg version="1.1" id="Слой_1" xmlns="http://www.w3.org/2000/svg" xmlns:xlink="http://www.w3.org/1999/xlink" x="0px" y="0px"
	 viewBox="0 0 22.1 21.6" style="enable-background:new 0 0 22.1 21.6;" xml:space="preserve">
<g id="Bitmap">
	<g>
		<g>
			<path d="M22.1,2.4c-0.4,1.5-0.8,3-1.2,4.5c-1,3.6-2,7.2-2.9,10.8c-0.1,0.3-0.2,0.6-0.4,0.9c-0.4,0.7-1.1,0.9-1.9,0.6
				c-1.4-0.6-2.8-1.2-4.2-1.7h-0.1c-0.4,1.3-1.3,2.4-2.1,3.5c-0.7,1-2.2,0.6-2.6-0.3c-0.5-1.2-1.1-2.4-1.6-3.7
				c-0.3-0.8-0.3-1.5,0.2-2.2c-0.2,0-0.5,0-0.7-0.1c-0.3-0.1-0.7-0.1-1-0.3c-0.8-0.3-1.6-0.6-2.4-1c-0.7-0.3-1.1-0.8-1.2-1.5
				c0,0,0,0,0-0.1c0-0.2,0-0.4,0-0.6c0-0.1,0.1-0.2,0.1-0.3c0.2-0.7,0.7-1.1,1.3-1.4c5.8-3,11.5-6.1,17.3-9.1
				c0.2-0.1,0.5-0.2,0.7-0.3c0.9-0.3,1.8,0.1,2.3,0.9C22,1.3,22,1.6,22.1,1.8C22.1,2,22.1,2.2,22.1,2.4z M17.1,4.7
				C17.2,4.7,17.2,4.7,17.1,4.7c-0.1,0.2-0.2,0.4-0.4,0.6c-2.5,2.7-5,5.3-7.5,8c-0.1,0.1-0.2,0.2-0.3,0.3c-0.4,0.5-0.2,1.1,0.3,1.4
				c0.2,0.1,0.3,0.2,0.5,0.2c1.6,0.6,3.1,1.3,4.7,1.9c0.6,0.2,1.2,0.5,1.9,0.8c0-0.1,0.1-0.1,0.1-0.2c1.4-5,2.7-10,4.1-15
				c0.1-0.2,0.1-0.4,0.1-0.6c0-0.3-0.2-0.4-0.5-0.4c-0.2,0-0.4,0.1-0.5,0.2c-5.8,2.9-11.6,6-17.4,9C2,11,1.9,11.1,1.8,11.2
				c-0.2,0.2-0.2,0.5,0,0.7c0.1,0.1,0.3,0.2,0.5,0.3c0.7,0.3,1.3,0.6,2,0.8c1,0.4,1.9,0.2,2.8-0.4c3.2-2.5,6.4-5,9.5-7.5
				C16.8,5,17,4.8,17.1,4.7z M8.3,20.1c0.1-0.1,0.1-0.2,0.2-0.2c0.2-0.3,0.4-0.6,0.6-0.9c0.3-0.5,0.6-0.9,0.9-1.4
				c0.2-0.3,0.1-0.5-0.2-0.8c-0.1,0-0.1-0.1-0.2-0.1c-0.7-0.4-1.5-0.8-2.2-1.1c-0.1,0-0.2-0.1-0.3-0.1c-0.3-0.1-0.5,0.1-0.5,0.4
				c0,0.3,0.1,0.6,0.2,0.9c0.4,0.9,0.8,1.8,1.2,2.7C8.1,19.7,8.2,19.9,8.3,20.1z"/>
		</g>
	</g>
</g>
</svg>
