<svg version="1.1" id="Слой_1" xmlns="http://www.w3.org/2000/svg" xmlns:xlink="http://www.w3.org/1999/xlink" x="0" y="0" viewBox="0 0 26.8 21.9" xml:space="preserve" enable-background="new 0 0 26.8 21.9"><path d="M26.1,0.4c-0.4,1.3-1.2,2.2-2.3,3c1-0.1,2-0.4,3-0.7c-0.1,0.1-0.2,0.3-0.3,0.4c-0.1,0.1-0.2,0.3-0.3,0.4	c-0.6,0.6-1.3,1.2-1.9,1.8c-0.1,0.1-0.2,0.2-0.2,0.4c0,5.7-2.2,10.3-6.9,13.6c-2,1.4-4.2,2.2-6.6,2.5c-2.2,0.3-4.5,0.1-6.6-0.5	c-1.4-0.4-2.7-1-4-1.8c1.4,0.1,2.8,0,4.2-0.4c1.4-0.4,2.6-1,3.8-1.9c-2.5-0.2-4.2-1.5-5.2-3.9c0.9,0.1,1.6,0.1,2.5-0.1	c-1.6-0.4-2.9-1.3-3.7-2.7C1.2,9.6,1,8.7,1,7.7c0.8,0.4,1.5,0.6,2.5,0.7c-1.2-0.9-2-2-2.3-3.4C0.9,3.6,1,2.3,1.8,1	c3,3.5,6.8,5.5,11.4,5.8c0-0.3-0.1-0.6-0.1-0.9c-0.1-2.2,0.8-4,2.7-5.1c2-1.2,4.8-0.9,6.5,0.7c0.2,0.2,0.4,0.3,0.7,0.2	c1-0.3,2-0.6,2.9-1.1C25.9,0.5,26,0.5,26.1,0.4z"/></svg>